# xmcd
#
# Track frame offsets: 
#        150
#        17325
#        39417
#        67285
#        86329
#        111194
#        130883
#        148365
#        168383
#        192704
#
# Disc length: 2781 seconds
#
# Revision: 0
# Processed by: cddbd v1.5PL3 Copyright (c) Steve Scherf et al.
# Submitted via: ExactAudioCopy v0.95a4
#
DISCID=900adb0a
DTITLE=Mason Casey - Deep Blue Dream
DYEAR=2003
DGENRE=Blues
TTITLE0=Career Woman
TTITLE1=Daddy Shot Mommy
TTITLE2=Gonna Miss You
TTITLE3=She's From NYC
TTITLE4=Take It Easy
TTITLE5=Rainy Day In El Valle
TTITLE6=Two Crazy Women
TTITLE7=Sumpin' Bit Me
TTITLE8=Thinkin' About You
TTITLE9=That's My Heart
EXTD=
EXTT0=
EXTT1=
EXTT2=
EXTT3=
EXTT4=
EXTT5=
EXTT6=
EXTT7=
EXTT8=
EXTT9=
PLAYORDER=
